<svg version="1.2" xmlns="http://www.w3.org/2000/svg" viewBox="0 0 120 60">
	<title>css</title>
	<style>
		.s0 { fill: #000000 } 
		.s1 { fill: #264de4 } 
		.s2 { fill: #2965f1 } 
		.s3 { fill: #ebebeb } 
		.s4 { fill: #ffffff } 
	</style>
	<g id="layer1">
		<g id="g29">
			<path id="path2999" class="s0" d="m54.8 20.6h14.2v6h-8.2v5.9h8.2v5.9h-14.2z"/>
			<path id="path3001" class="s0" d="m71.8 20.6h14.2v5.2h-8.2v1h8.2v11.9h-14.2v-5.4h8.3v-1.1h-8.3z"/>
			<path id="path3003" class="s0" d="m88.8 20.6h14.2v5.2h-8.2v1h8.2v11.9h-14.2v-5.4h8.3v-1.1h-8.3z"/>
		</g>
		<g id="g37">
			<path id="polygon2989" class="s1" d="m45.7 44.2l-12.9 3.6-12.9-3.6-2.9-32.2h31.6z"/>
			<path id="polygon2991" class="s2" d="m32.8 14.6h12.9l-2.5 27.6-10.4 2.9z"/>
			<path id="polygon2993" class="s3" d="m32.8 30.5h-8.9l-0.3-3.9h9.2z"/>
			<path id="polygon2995" class="s3" d="m32.8 18.6v3.9h-9.6l-0.3-3.9h9.9z"/>
			<path id="polygon2997" class="s3" d="m32.8 36.8v4.2l-8.1-2.3-0.6-6.2h1.8 2.2l0.3 3.2 4.4 1.2z"/>
			<path id="polygon3005" class="s4" d="m32.8 22.5v-3.9h9.9l-0.7 8-0.1 1-1 10.4v0.7l-8.1 2.3v-4.2l4.4-1.1 0.4-5.2h-4.8v-3.9h5.2l0.3-4.1z"/>
		</g>
	</g>
</svg>