<svg version="1.2" xmlns="http://www.w3.org/2000/svg" viewBox="0 0 90 60">
	<title>javascript</title>
	<style>
		.s0 { fill: #555588 } 
		.s1 { fill: #000000;stroke: #000000 } 
	</style>
	<path id="Layer" class="s0" d="m23.8 22.5q0-1.2-0.9-1.8-0.8-0.5-2.5-0.5v-3.1q0.2 0 0.4 0 0.2-0.1 0.4-0.1 0.2 0 0.3 0 0.2 0 0.4-0.1 0.6-0.1 1.1-0.4 0.1 0 0.2-0.1 0.1-0.1 0.1-0.2 0.1-0.1 0.2-0.2 0.1-0.1 0.1-0.2 0.2-0.5 0.2-1.1v-4.2q0-0.9 0.3-1.6 0.2-0.7 0.8-1.1 0.7-0.5 1.8-0.7 1.1-0.2 2.9-0.2v3q-0.6 0-1 0.1-0.4 0-0.7 0.3-0.3 0.1-0.5 0.5-0.1 0.4-0.1 0.9v3.9q-0.1 2.5-3.1 3v0.1q1.5 0.2 2.3 1 0.8 0.7 0.8 1.9v3.9q0 0.6 0.1 0.9 0.1 0.1 0.1 0.2 0 0.1 0.1 0.1 0.1 0.1 0.1 0.2 0.1 0 0.2 0.1 0 0 0.1 0.1 0.1 0 0.2 0.1 0.1 0 0.2 0 0.1 0 0.2 0.1 0.1 0 0.2 0 0.1 0 0.3 0 0.1 0 0.2 0 0.1 0 0.2 0.1v2.9q-1.7 0-2.8-0.2-1.1-0.2-1.8-0.6-0.6-0.5-0.9-1.2-0.2-0.7-0.2-1.6v-4.2m7.5 1.7q0-0.6 0.1-1 0.1-0.1 0.1-0.2 0.1-0.1 0.2-0.2 0-0.1 0.1-0.2 0.1-0.1 0.1-0.1 0.4-0.3 0.8-0.4 0.4-0.1 0.9-0.1 0.1 0 0.2 0 0.1 0 0.2 0 0.1 0 0.2 0 0.1 0.1 0.3 0.1 0.4 0.1 0.7 0.4 0.1 0 0.1 0.1 0.1 0.1 0.2 0.2 0 0.1 0.1 0.2 0 0.1 0.1 0.2 0.2 0.4 0.2 1 0 0.6-0.2 1-0.2 0.4-0.5 0.7-0.1 0.1-0.2 0.1-0.1 0.1-0.2 0.1-0.1 0.1-0.1 0.1-0.1 0.1-0.2 0.1-0.5 0.1-0.9 0.1-0.1 0-0.2 0-0.2 0-0.3 0-0.1 0-0.2-0.1-0.1 0-0.2 0-0.1 0-0.2-0.1-0.1 0-0.2-0.1-0.1 0-0.2-0.1-0.1 0-0.2-0.1 0-0.1-0.1-0.2-0.1 0-0.1-0.1-0.1-0.1-0.2-0.2 0-0.1-0.1-0.2 0-0.1 0-0.2-0.1-0.2-0.1-0.3 0-0.1 0-0.2 0-0.2 0-0.3zm7.4 8.3q-0.6 0-1.3-0.1-0.7-0.1-1.1-0.2v-3.1q0.1 0 0.2 0 0 0 0.1 0.1 0.1 0 0.2 0 0.1 0 0.2 0 0.4 0.1 0.8 0.1 0.1 0 0.2 0 0.1 0 0.1 0 0.1 0 0.2-0.1 0.1 0 0.1 0 0.1 0 0.2-0.1 0.1 0 0.1 0 0.1-0.1 0.1-0.1 0.1-0.1 0.2-0.2 0.2-0.2 0.3-0.6 0.1-0.5 0.1-1.1v-15.7h4v16.3q0 0.2 0 0.4 0 0.3 0 0.5-0.1 0.3-0.1 0.5-0.1 0.2-0.1 0.5-0.3 0.8-0.8 1.5-0.6 0.7-1.5 1.1-0.9 0.3-2.2 0.3zm0.6-24.9q0-0.6 0.1-0.9 0.1-0.1 0.1-0.2 0.1-0.1 0.1-0.2 0.1 0 0.2-0.1 0-0.1 0.1-0.1 0.3-0.3 0.7-0.4 0.4 0 0.9 0 0.4 0 0.8 0 0.4 0.1 0.7 0.4 0.1 0 0.1 0.1 0.1 0.1 0.2 0.1 0 0.1 0.1 0.2 0 0.1 0.1 0.2 0.1 0.3 0.1 0.9 0 0.6-0.1 0.9-0.2 0.4-0.5 0.7-0.3 0.2-0.7 0.3-0.1 0-0.2 0-0.1 0-0.2 0.1-0.1 0-0.2 0-0.1 0-0.2 0-0.2 0-0.3 0-0.1 0-0.2 0-0.1-0.1-0.2-0.1-0.1 0-0.2 0-0.1 0-0.2-0.1-0.1 0-0.2 0 0-0.1-0.1-0.1-0.1-0.1-0.2-0.1-0.1-0.1-0.1-0.2-0.1 0-0.2-0.1 0-0.1-0.1-0.2 0-0.1-0.1-0.2-0.1-0.3-0.1-0.9zm18.1 14.1q0 1.2-0.5 2-0.1 0.2-0.2 0.4-0.1 0.2-0.3 0.4-0.1 0.2-0.3 0.4-0.2 0.1-0.4 0.3-0.7 0.5-1.8 0.8-1.1 0.3-2.5 0.3-0.7 0-1.3 0-0.6-0.1-1.2-0.2-0.1 0-0.3 0-0.1 0-0.2-0.1-0.2 0-0.3 0-0.1-0.1-0.3-0.1-0.1-0.1-0.2-0.1-0.2-0.1-0.3-0.1-0.1-0.1-0.3-0.1-0.1-0.1-0.2-0.1v-3.3q0.5 0.3 1.1 0.5l1.3 0.4 1.1 0.2q0.6 0.1 1.1 0.1 0.5 0 0.9-0.1 0.4-0.1 0.6-0.3 0.1 0 0.1 0 0.1-0.1 0.1-0.1 0.1-0.1 0.1-0.2 0.1 0 0.1-0.1 0 0 0-0.1 0.1-0.1 0.1-0.1 0-0.1 0-0.2 0 0 0-0.1 0-0.1 0-0.1 0-0.1 0-0.1 0-0.1 0-0.2-0.1 0-0.1-0.1-0.1-0.2-0.4-0.4-0.3-0.3-0.9-0.6l-1.5-0.8-1.7-0.8q-0.7-0.4-1.2-1-0.4-0.5-0.6-1.2-0.2-0.6-0.2-1.6 0-1 0.3-1.8 0.4-0.7 1.2-1.2 0.7-0.6 1.7-0.8 1-0.3 2.3-0.3 0.3 0 0.6 0.1 0.3 0 0.6 0 0.3 0 0.6 0.1 0.4 0.1 0.7 0.1 0.3 0.1 0.6 0.2 0.3 0.1 0.6 0.2 0.3 0.1 0.6 0.3 0.3 0.1 0.6 0.2l-1.2 2.9q-0.3-0.1-0.5-0.2-0.2-0.1-0.5-0.2-0.2-0.1-0.4-0.2-0.3-0.1-0.5-0.2-0.2-0.1-0.5-0.1-0.2-0.1-0.4-0.1-0.2-0.1-0.5-0.1-0.2 0-0.4 0-0.8 0-1.2 0.3-0.1 0.1-0.2 0.2 0 0-0.1 0.1 0 0.1-0.1 0.3 0 0.1 0 0.2 0 0.2 0.1 0.5 0.1 0.2 0.4 0.4 0.3 0.2 0.8 0.4l1.3 0.7 1.6 0.8q0.8 0.4 1.3 0.9 0.2 0.1 0.3 0.2 0.1 0.2 0.2 0.3 0.1 0.2 0.2 0.4 0.1 0.1 0.2 0.3 0.3 0.7 0.3 1.6m7.1 5q0 0.9-0.3 1.6-0.2 0.7-0.9 1.2-0.6 0.4-1.7 0.6-1.2 0.2-2.9 0.2v-2.9q0.6-0.1 1-0.1 0.4-0.1 0.7-0.3 0.3-0.2 0.4-0.6 0.2-0.3 0.2-0.9v-3.9q0-1.3 0.8-2 0.8-0.7 2.3-0.9v-0.2q-3-0.4-3.1-2.9v-3.9q0-0.6-0.2-0.9 0-0.1-0.1-0.2 0-0.1-0.1-0.2 0 0-0.1-0.1-0.1 0-0.1-0.1-0.1-0.1-0.2-0.1-0.1 0-0.2-0.1-0.1 0-0.2 0 0-0.1-0.1-0.1-0.2 0-0.3 0-0.1 0-0.2 0-0.1-0.1-0.2-0.1-0.2 0-0.3 0v-2.9q1.7 0 2.9 0.2 1.1 0.2 1.7 0.6 0.7 0.5 0.9 1.2 0.3 0.6 0.3 1.6v4.2q0 0.6 0.2 1.1 0 0.1 0.1 0.2 0.1 0.1 0.1 0.2 0.1 0.1 0.2 0.2 0.1 0 0.2 0.1 0.4 0.3 1.1 0.4 0.6 0.1 1.4 0.1v3.2q-1.6 0-2.5 0.5-0.8 0.5-0.8 1.8v4.1"/>
	<path id="Layer" fill-rule="evenodd" class="s1" d="m6.1 54.2q-0.5 0-0.8-0.1-0.3 0-0.6-0.1v-1.4q0.1 0 0.2 0 0.1 0 0.1 0.1 0.1 0 0.2 0 0.1 0 0.2 0 0.1 0 0.1 0 0.1 0 0.2 0 0.1 0.1 0.2 0.1 0.1 0 0.2 0 0.1 0 0.2 0 0-0.1 0.1-0.1 0.1 0 0.2 0 0.1 0 0.2 0 0-0.1 0.1-0.1 0.1 0 0.2 0 0-0.1 0.1-0.1 0.1-0.1 0.1-0.1 0.3-0.3 0.5-0.6 0.2-0.4 0.2-1v-12.9h1.6v12.7q0 0.9-0.3 1.6 0 0.2-0.1 0.3-0.1 0.2-0.2 0.3-0.1 0.1-0.2 0.3-0.1 0.1-0.2 0.2-0.1 0.1-0.2 0.2-0.2 0.1-0.3 0.2-0.1 0.1-0.3 0.2-0.1 0-0.3 0.1c-0.4 0.1-1 0.2-1.5 0.2m11.8-4.8h-0.1q-0.1 0.1-0.1 0.2-0.1 0.1-0.2 0.2 0 0.1-0.1 0.2-0.1 0-0.2 0.1-0.1 0.2-0.3 0.3-0.1 0.1-0.3 0.2-0.2 0.1-0.4 0.2-0.2 0-0.4 0.1-0.4 0.1-1 0.1-0.6 0-1.1-0.2-0.1-0.1-0.2-0.1-0.1-0.1-0.2-0.1-0.2-0.1-0.3-0.2-0.1 0-0.2-0.1-0.3-0.4-0.5-0.9-0.2-0.6-0.2-1.3 0-1.5 1-2.2 1-0.8 3.1-0.9h1.6v-0.6q0-0.6-0.2-1-0.1-0.4-0.3-0.7-0.1 0-0.2-0.1 0 0-0.1-0.1-0.1 0-0.2-0.1 0 0-0.1 0-0.1 0-0.2-0.1-0.1 0-0.2 0-0.1 0-0.2 0-0.1 0-0.2 0-0.2 0-0.4 0-0.2 0-0.3 0-0.2 0.1-0.4 0.1-0.1 0-0.3 0.1-0.2 0-0.3 0.1-0.2 0.1-0.3 0.1-0.2 0.1-0.3 0.2-0.2 0-0.3 0.1l-0.6-1.2q0.7-0.4 1.5-0.6 0.2-0.1 0.4-0.1 0.2-0.1 0.4-0.1 0.2 0 0.4 0 0.3 0 0.5 0 0.9 0 1.5 0.1 0.7 0.2 1.1 0.6 0.1 0.1 0.2 0.2 0.1 0.1 0.2 0.3 0.1 0.1 0.1 0.2 0.1 0.2 0.1 0.3 0.2 0.6 0.2 1.5v6.6h-1.1zm-2.6 0.2q0.1 0 0.3 0 0.1 0 0.2-0.1 0.1 0 0.3 0 0.1 0 0.2-0.1 0.1 0 0.2-0.1 0.1 0 0.2-0.1 0.1-0.1 0.2-0.1 0.1-0.1 0.2-0.2 0.3-0.3 0.5-0.8 0.2-0.6 0.2-1.2v-0.9h-1.3q-0.8 0.1-1.3 0.2-0.5 0.2-0.8 0.4-0.4 0.3-0.5 0.6 0 0.1-0.1 0.2 0 0.1 0 0.2 0 0.1 0 0.2 0 0.1 0 0.2 0 0.8 0.4 1.2 0.4 0.4 1.1 0.4zm5.4-8.5h1.7l1.7 5.3 0.3 0.8 0.2 0.9 0.3 0.9 0.1 0.6h0.1l0.1-0.6 0.3-0.9 0.2-0.9 0.3-0.8 1.7-5.3h1.6l-3.3 9.6h-2zm15.2 8.3h-0.1q-0.1 0.1-0.1 0.2-0.1 0.1-0.2 0.2-0.1 0.1-0.1 0.1-0.1 0.1-0.2 0.2-0.1 0.1-0.3 0.3-0.2 0.1-0.3 0.2-0.2 0.1-0.4 0.1-0.2 0.1-0.4 0.1-0.4 0.1-1 0.1-0.6 0-1.1-0.1-0.1-0.1-0.2-0.1-0.1-0.1-0.3-0.2-0.1 0-0.2-0.1-0.1-0.1-0.2-0.2-0.3-0.3-0.5-0.9-0.3-0.5-0.2-1.2 0-1.5 1-2.3 1-0.7 3-0.8l1.7-0.1v-0.6q0-0.6-0.2-1-0.1-0.3-0.3-0.6-0.1 0-0.2-0.1 0-0.1-0.1-0.1-0.1 0-0.2-0.1-0.1 0-0.1 0-0.1-0.1-0.2-0.1-0.1 0-0.2 0-0.1 0-0.2 0-0.1 0-0.2 0-0.2 0-0.4 0-0.2 0-0.3 0-0.2 0-0.4 0.1-0.1 0-0.3 0.1-0.2 0-0.3 0.1-0.2 0-0.3 0.1-0.2 0.1-0.3 0.1-0.2 0.1-0.3 0.2l-0.6-1.2q0.7-0.4 1.5-0.6 0.2-0.1 0.4-0.1 0.2-0.1 0.4-0.1 0.2 0 0.4-0.1 0.2 0 0.5 0 0.9 0 1.5 0.2 0.7 0.2 1.1 0.6 0.1 0.1 0.2 0.2 0.1 0.1 0.2 0.2 0.1 0.2 0.1 0.3 0.1 0.1 0.1 0.3 0.2 0.6 0.2 1.4v6.6h-1.1zm-2.6 0.3q0.1 0 0.2 0 0.2-0.1 0.3-0.1 0.1 0 0.2 0 0.2-0.1 0.3-0.1 0.1 0 0.2-0.1 0.1 0 0.2-0.1 0.1-0.1 0.2-0.1 0.1-0.1 0.2-0.2 0.3-0.3 0.5-0.9 0.2-0.5 0.2-1.2v-0.8h-1.3q-0.8 0.1-1.3 0.2-0.5 0.1-0.9 0.4-0.3 0.2-0.4 0.6-0.1 0.1-0.1 0.2 0 0.1 0 0.2-0.1 0.1-0.1 0.2 0 0.1 0 0.2 0 0.8 0.5 1.2 0.4 0.4 1.1 0.4zm13.9-2.4q0 0.9-0.3 1.6-0.1 0.1-0.2 0.3-0.1 0.1-0.2 0.3-0.1 0.1-0.2 0.3-0.1 0.1-0.3 0.2-0.5 0.5-1.3 0.7-0.8 0.3-1.8 0.3-0.3 0-0.5-0.1-0.2 0-0.5 0-0.2 0-0.4 0-0.2-0.1-0.5-0.1-0.8-0.2-1.4-0.4v-1.6l0.7 0.3 0.8 0.2 0.9 0.2q0.1 0 0.2 0 0.1 0 0.2 0 0.1 0 0.2 0 0.1 0 0.2 0 1.5 0 2.1-0.5 0.7-0.5 0.7-1.5 0-0.1 0-0.2 0-0.1 0-0.2-0.1-0.1-0.1-0.2 0-0.1 0-0.2-0.2-0.4-0.5-0.7-0.3-0.3-0.8-0.5-0.2-0.1-0.4-0.2-0.1-0.1-0.3-0.2-0.2 0-0.3-0.1-0.2-0.1-0.4-0.1-0.2-0.1-0.3-0.2-0.2-0.1-0.4-0.1-0.2-0.1-0.3-0.2-0.2-0.1-0.4-0.2-0.5-0.4-0.9-0.8-0.4-0.5-0.6-1.1-0.1-0.6-0.1-1.3 0-0.8 0.2-1.4 0.1-0.1 0.2-0.3 0.1-0.1 0.2-0.2 0.1-0.2 0.2-0.3 0.1-0.1 0.2-0.2 0.2-0.1 0.3-0.2 0.2-0.1 0.3-0.2 0.2-0.1 0.3-0.1 0.2-0.1 0.4-0.1 0.7-0.3 1.5-0.3 1.1 0 1.9 0.2 0.8 0.2 1.5 0.5l-0.6 1.4q-0.6-0.2-1.3-0.4-0.2-0.1-0.4-0.1-0.2 0-0.4-0.1-0.1 0-0.3 0-0.2 0-0.4 0-1.1 0-1.7 0.5-0.1 0.1-0.2 0.3-0.2 0.1-0.2 0.3-0.1 0.2-0.1 0.3-0.1 0.2-0.1 0.4 0 0.5 0.2 0.9 0 0.1 0 0.2 0.1 0.1 0.1 0.1 0.1 0.1 0.2 0.2 0 0.1 0.1 0.2 0.3 0.2 0.8 0.5 0.5 0.3 1.2 0.6 0.2 0 0.4 0.1 0.2 0.1 0.4 0.2 0.1 0 0.3 0.1 0.2 0.1 0.3 0.2 0.2 0.1 0.3 0.2 0.1 0 0.3 0.1 0.1 0.1 0.2 0.2 0.1 0.1 0.3 0.3 0.1 0.1 0.1 0.2 0.1 0.1 0.2 0.2 0.1 0.1 0.1 0.3 0.1 0.1 0.2 0.2 0.2 0.6 0.2 1.4zm5.9 3.6q-0.9 0-1.7-0.3-0.2-0.1-0.3-0.2-0.2-0.1-0.4-0.2-0.2-0.1-0.3-0.2-0.2-0.1-0.3-0.3-0.6-0.6-0.9-1.5-0.3-1-0.3-2.3 0-1.4 0.3-2.3 0.3-1 0.9-1.6 0.2-0.1 0.3-0.3 0.2-0.1 0.3-0.2 0.2-0.1 0.4-0.2 0.2-0.1 0.4-0.2 0.8-0.2 1.7-0.2 0.1 0 0.3 0 0.2 0 0.3 0 0.2 0 0.4 0 0.1 0.1 0.3 0.1 0.1 0 0.3 0.1 0.1 0 0.3 0.1 0.1 0 0.2 0.1 0.2 0 0.3 0.1l-0.5 1.3q-0.2-0.1-0.4-0.1-0.1-0.1-0.2-0.1 0 0-0.1 0 0 0-0.1 0-0.1-0.1-0.1-0.1-0.3-0.1-0.5-0.1-0.1 0-0.2 0 0 0-0.1 0 0 0-0.1 0-0.1 0-0.1 0-1.4 0-2 0.9-0.7 0.8-0.7 2.7 0 1.9 0.7 2.7 0.6 0.9 1.9 0.9 0.2 0 0.3 0 0.2 0 0.3-0.1 0.2 0 0.4 0 0.1 0 0.3-0.1 0.1 0 0.3-0.1 0.1 0 0.2-0.1 0.1 0 0.3-0.1 0.1 0 0.2-0.1v1.4q-0.1 0.1-0.2 0.2-0.1 0-0.3 0.1-0.1 0-0.2 0.1-0.1 0-0.3 0-0.5 0.2-1.3 0.2zm8.8-10q0 0-0.1 0zm0.5 0q0.1 0 0.2 0 0 0 0.1 0 0.1 0 0.1 0 0.1 0 0.2 0.1l-0.2 1.4h-0.5q-0.3-0.1-0.5-0.1-0.6 0-1 0.3-0.1 0-0.2 0.1-0.1 0-0.2 0.1-0.1 0.1-0.2 0.2-0.1 0.1-0.2 0.2-0.1 0.1-0.2 0.2 0 0.1-0.1 0.3-0.1 0.1-0.1 0.2-0.1 0.2-0.1 0.3 0 0.2-0.1 0.3 0 0.2 0 0.3-0.1 0.2-0.1 0.4 0 0.1 0 0.3v5.2h-1.6v-9.7h1.3l0.2 1.8h0.1l0.5-0.7q0-0.1 0.1-0.2 0.1-0.1 0.1-0.1 0.1-0.1 0.2-0.2 0-0.1 0.1-0.1 0.1-0.1 0.2-0.2 0.1 0 0.2-0.1 0 0 0.1-0.1 0.1 0 0.2-0.1 0.1 0 0.2 0 0.2-0.1 0.3-0.1 0.1 0 0.2 0 0.1 0 0.2 0zm3.9 9.8h-1.6v-9.7h1.6zm-1.4-13q0-0.1 0.1-0.1 0.1-0.1 0.2-0.1 0.1 0 0.2 0 0 0 0.1 0 0.1 0 0.1 0 0.1 0 0.1 0 0.1 0 0.1 0 0.1 0 0.1 0 0 0 0.1 0 0 0.1 0.1 0.1 0 0 0 0 0.1 0.1 0.1 0.1 0 0 0.1 0.1 0 0 0 0 0 0.1 0.1 0.1 0 0.1 0 0.1 0.1 0.2 0.1 0.5 0 0.5-0.3 0.7-0.3 0.3-0.7 0.3c-0.2 0-0.5-0.2-0.6-0.3q-0.3-0.3-0.3-0.8 0-0.5 0.3-0.7zm8.7 13.2q0 0 0 0zm-0.2 0q-0.1 0-0.2 0-0.2-0.1-0.3-0.1-0.1 0-0.2 0-0.4-0.1-0.8-0.3-0.1-0.1-0.1-0.1-0.1-0.1-0.2-0.1-0.1-0.1-0.1-0.1-0.1-0.1-0.2-0.2 0 0-0.1-0.1-0.1-0.1-0.1-0.1-0.1-0.1-0.1-0.2-0.1 0-0.1-0.1h-0.1v0.6 0.4l0.1 0.4v4.1h-1.6v-13.9h1.3l0.2 1.3h0.1q0-0.1 0.1-0.2 0-0.1 0.1-0.1 0-0.1 0.1-0.2 0.1 0 0.1-0.1 0.1-0.1 0.2-0.1 0-0.1 0.1-0.2 0.1 0 0.2-0.1 0 0 0.1-0.1 0.1 0 0.2-0.1 0.1 0 0.2-0.1 0.1 0 0.2 0 0.1-0.1 0.2-0.1 0.1 0 0.2 0 0.1-0.1 0.2-0.1 0.2 0 0.3 0 0.1 0 0.2 0 0.9 0 1.5 0.3 0.7 0.3 1.2 1 0.5 0.6 0.7 1.5 0.3 0.9 0.3 2.2 0 1.2-0.3 2.2-0.2 0.9-0.7 1.5-0.5 0.6-1.2 1c-0.4 0.2-1 0.3-1.5 0.3q-0.1 0-0.2 0zm0.1 0h0.1q0 0-0.1 0zm0.1 0q0 0 0 0 0 0 0 0zm-0.3-8.7q-0.6 0-1.1 0.2-0.5 0.2-0.7 0.6-0.3 0.4-0.5 1.1 0 0.1 0 0.3-0.1 0.2-0.1 0.4 0 0.2 0 0.3 0 0.2 0 0.4v0.4q0 0.2 0 0.4 0 0.2 0 0.4 0 0.2 0 0.4 0.1 0.2 0.1 0.4 0.1 0.6 0.4 1.1 0.1 0.1 0.2 0.2 0 0.1 0.1 0.2 0.1 0.1 0.2 0.2 0.2 0.1 0.3 0.1 0.4 0.3 1.2 0.3 1.2 0 1.7-1 0.6-1 0.6-2.7 0-1.9-0.6-2.8-0.6-0.9-1.8-0.9zm9.4 7.4q0.1 0 0.3 0l0.4-0.1h0.3l0.3-0.1v1.2q-0.1 0.1-0.3 0.1-0.1 0-0.1 0-0.1 0.1-0.1 0.1-0.1 0-0.1 0-0.1 0-0.1 0-0.2 0-0.5 0.1 0 0-0.1 0 0 0-0.1 0 0 0-0.1 0-0.1 0-0.1 0-0.6 0-1-0.2-0.1 0-0.2 0-0.1-0.1-0.2-0.1-0.1-0.1-0.2-0.2-0.1 0-0.2-0.1-0.4-0.4-0.5-1-0.2-0.5-0.2-1.4v-5.6h-1.4v-0.7l1.4-0.7 0.6-2.1h1v2.3h2.4v1.2h-2.4v5.6q0 0.8 0.2 1.2 0.3 0.5 1 0.5z"/>
</svg>