<svg version="1.2" xmlns="http://www.w3.org/2000/svg" viewBox="0 0 3500 4000">
	<title>Apple-svg</title>
	<style>
		.s0 { fill: #000000 } 
	</style>
	<path id="Layer" fill-rule="evenodd" class="s0" d="m971.1 340.9c-5.8 4.5-108.2 62.2-108.2 190.5 0 148.4 130.3 200.9 134.2 202.2-0.6 3.2-20.7 71.9-68.7 141.9-42.8 61.6-87.5 123.1-155.5 123.1-68 0-85.5-39.5-164-39.5-76.5 0-103.7 40.8-165.9 40.8-62.2 0-105.6-57-155.5-127-57.8-82.2-104.5-209.9-104.5-331.1 0-194.4 126.4-297.5 250.8-297.5 66.1 0 121.2 43.4 162.7 43.4 39.5 0 101.1-46 176.3-46 28.5 0 130.9 2.6 198.3 99.2zm-369.5-110.2c-5.2 0-10.4-0.7-13.6-1.3-0.6-2.5-1.9-10.3-1.9-18.1 0-51.9 26.6-103.1 55.1-135.5 36.3-42.1 96.5-73.9 147.1-75.8 1.3 5.8 1.9 13 1.9 20.1 0 51.2-22 102.4-53.1 139.3-33 40.9-90.1 71.3-135.5 71.3z"/>
	<path id="Layer" fill-rule="evenodd" class="s0" d="m1136.2 487.9q0-53.4-3.2-102.9h59.7l3.2 60.4h1.5q41.6-68.3 117.8-68.3 36.9-0.1 65.2 20.3 28.2 20.5 40 54.2h1.6q19.6-34.6 51.4-54.6 31.8-20 72.7-20.1 54.9 0 89.1 40.4 34.2 40.5 34.2 122.1l0.1 226.2h-66.7l-0.1-216.7q-0.1-116.2-81-116.2-29.8 0-51 18.9-21.2 18.8-30.6 49.5-3.9 14.1-3.9 29.8l0.1 234.8h-66.8l-0.1-230q0-47.2-20-75-20.1-27.9-57-27.9-29.8 0-53 20.5-23.1 20.4-32.5 51-3.9 12.6-3.9 30.7l0.1 230.8-66.8 0.1zm628.4 255.7q-32.2-29.9-32.3-78.6 0-69.1 58.1-105.6 58.1-36.5 165.7-35.8v-7.9q-0.1-88.7-84.9-88.7-55 0.1-96.6 27.6l-15.7-45.6q51-32.2 123.3-32.2 141.3-0.1 141.4 154.6l0.1 143.7q0 54.2 6.3 90.3h-62l-6.3-47.1h-1.6q-38.5 55-113.9 55.1-49.4 0-81.6-29.8zm134.6-26.4q15.3-5.9 30.3-19.3 27.4-25.1 27.4-59.7v-66.7q-156.3-3.1-156.3 85.7 0.1 31.4 17.7 48.6 17.7 17.3 46 17.3 19.6 0 34.9-5.9zm276.9 31.3c-28.3-16-50-38.5-65.3-67.5q-22.8-43.6-22.8-101.7 0-58.9 24.7-104.9c16.5-30.6 39.9-54.6 70.3-71.9 30.3-17.2 65.4-25.9 105.2-25.9 37.7 0 68.6 6.5 92.6 19.6l-14.9 52.6q-33.7-18.1-77.7-18c-40.8 0-72.9 13.6-96.2 40.8-23.2 27.3-34.9 62.1-34.9 104.5 0 42.4 12.1 76.7 36.2 102.9 24.1 26.1 55.3 39.2 93.5 39.2 26.2 0 53.4-6.1 81.6-18.1l11 51.8c-29.8 13.6-64.8 20.4-105.2 20.5-37.2 0-69.9-8-98.1-23.9zm357.2-8.8q-52.5-34.2-81.3-95.4c-19.1-40.8-28.7-87.2-28.7-139 0-53.9 10.1-102 30.2-144.1 20.1-42.2 48.2-75 84.3-98.6q54.2-35.4 124.9-35.4c45.5 0 85.9 11.2 120.9 33.7 35.1 22.5 62.4 54.2 81.7 95 19.4 40.8 29.1 87.4 29.2 139.8q0 82.4-29.4 145.2-29.4 62.9-83.6 97.9c-36.1 23.3-78.2 34.9-126.4 35-46.1 0-86.7-11.4-121.8-34.1zm211.3-49.2c25.1-18.9 44.4-45.1 58-78.6 13.7-33.5 20.4-71.2 20.4-113.1 0-41.3-7-78.5-20.9-111.5-13.8-32.9-33.3-58.7-58.1-77.3-24.9-18.6-53.3-27.8-85.2-27.8q-48.8 0-86 28.7-37.2 28.7-57.7 78.9c-13.6 33.5-20.4 71.5-20.3 113.9 0 40.8 6.8 77.6 20.4 110.3q20.5 49.1 57.8 77c24.8 18.5 53.3 27.8 85.2 27.8 32.5 0 61.2-9.5 86.4-28.3zm191.6 49.4l17.2-56.6c35.1 22.5 75 33.7 119.4 33.7q49.5 0 80.1-24.8 30.6-24.7 30.6-65.5 0-36.9-23.6-61.7c-15.7-16.5-41.1-31.2-76.2-44.3-91.6-34.5-137.4-84.7-137.5-150.7 0-27.2 7.2-51.7 21.6-73.4 14.4-21.8 34.5-38.8 60.4-51.1 25.9-12.3 55.1-18.5 87.6-18.5 46.6 0 84.5 8.3 113.9 25.1l-18.9 55.7c-27.8-16.7-60.1-25.1-97.4-25.1-28.7 0.1-52.6 7.4-71.4 22.1q-28.3 22-28.2 57.3 0 34.6 22.4 56.5c14.9 14.7 42.3 30.1 82 46.3 46.1 18.8 79.8 40.4 101 64.8q31.8 36.5 31.8 91.4 0.1 45.6-22.3 79.7-22.4 34.2-63.6 53.1c-27.5 12.6-59.8 18.9-97 18.9q-82.4 0-131.9-32.9z"/>
</svg>
