<svg version="1.2" xmlns="http://www.w3.org/2000/svg" viewBox="0 0 128 128">
	<title>logo-bird-ninja-svg</title>
	<defs>
		<linearGradient id="g1" x1="33.6" y1="53.8" x2="84.9" y2="53.8" gradientUnits="userSpaceOnUse">
			<stop offset="0" stop-color="#000000"/>
			<stop offset="1" stop-color="#6d5656"/>
		</linearGradient>
		<linearGradient id="g2" x1="33.6" y1="93.3" x2="151.7" y2="8" gradientUnits="userSpaceOnUse">
			<stop offset="0" stop-color="#000000"/>
			<stop offset="1" stop-color="#6d5656"/>
		</linearGradient>
		<linearGradient id="g3" x1="27.5" y1="63.3" x2="69.5" y2="46.9" gradientUnits="userSpaceOnUse">
			<stop offset="0" stop-color="#000000"/>
			<stop offset="1" stop-color="#6d5656"/>
		</linearGradient>
	</defs>
	<style>
		.s0 { fill: #1a1a1a;stroke: #000000;stroke-width: .3 } 
		.s1 { fill: url(#g1) } 
		.s2 { fill: url(#g2) } 
		.s3 { fill: url(#g3) } 
		.s4 { fill: #d40000 } 
		.s5 { fill: #ffffff } 
		.s6 { fill: #1a1a1a } 
	</style>
	<g id="layer1">
		<path id="path3014" class="s0" d="m116.3 49.6c8.8 2.6 8.8 2.6 8.8 2.6l-8.2 2.4 5.6 2.4-5.9 1.1z"/>
		<path id="path3057-6" class="s1" d="m84.9 61.5c0.6 7-9.7 13.6-16.6 12.8-17.8-1.9-35.8-26-34.6-41.1 19.7 7.9 49.7 8.8 51.2 28.3z"/>
		<path id="path3055" class="s2" d="m54.4 47.6c6.6-9.3 14.4-19.6 24.7-22.9 22.8-7.2 38.2 10.3 38.2 25.7 0 22.4-13.9 50.7-35.2 59.5-25.5 10.5-60.6 0.7-80.1-21 24.6-8.5 37.7-21.7 52.4-41.3z"/>
		<path id="path3057" class="s3" d="m71.8 64.7c1.7 6.8-7.4 14.9-14.4 15.3-17.8 0.9-39.5-20-40.7-35 20.7 4.6 50.5 0.7 55.1 19.7z"/>
		<path id="path3038" class="s4" d="m66.1 33.2c6.2 0.5 17.1 2.5 25.8 3 7.1 0.4 15.4 0.3 21.3 0.1 4.2 7.3 4.6 15 3.4 21.8-12.5 2.1-21.8 0.5-31.9-2.7-9.3-3-18.4-7.4-25.1-14.8 3-4.3 4-5.2 6.5-7.4z"/>
		<g id="g3044">
			<g id="g3016">
				<g id="g3024">
					<path id="path3012" class="s5" d="m112.1 50.9c-1.2 3.2-5.5 4.4-9.5 2.7-4.1-1.7-6.4-5.7-5.2-8.9 1.3-3.2 5.5-4.5 9.6-2.7 4 1.7 6.3 5.7 5.1 8.9z"/>
					<path id="path3797" class="s6" d="m111.7 50.5c-0.9 2.4-4 3.4-6.8 2.2-2.9-1.2-4.4-4.1-3.5-6.6 0.9-2.4 4-3.4 6.8-2.2 2.9 1.2 4.4 4.2 3.5 6.6z"/>
					<path id="path3801" class="s5" d="m110.6 47.4c-0.4 0.8-1.4 1.2-2.4 0.8-0.9-0.4-1.4-1.4-1.1-2.3 0.3-0.8 1.4-1.2 2.3-0.8 1 0.4 1.5 1.4 1.2 2.3z"/>
				</g>
			</g>
		</g>
		<path id="path3043" class="s6" d="m111.7 46.3c-1.6-1-2.9-2.3-4.4-3.3-1.5-1-3.1-2-4.7-2.7q-1.1-0.4-2.2-0.7c-0.5 0.1 0.1-0.4 0.2-0.5q0.7-0.9 1.5-1.7c0.6 0.1 1.2 0.4 1.9 0.6 1.7 0.7 3.2 1.7 4.8 2.7 1.5 1.1 3 2.3 4.5 3.3 0.5 0.1 0.5 0.4 0.1 0.6q-0.9 0.8-1.7 1.7z"/>
		<path id="path3095" class="s4" d="m67.4 41.5c-3-0.1-6.5 0.2-8.8-2.5-2-2.2-3.6-5-4.7-8-0.2-2.2-0.2-4.8-2.1-5.9-2.3-1.4-5-1.2-7.6-1.6-4.7-0.3-9.2 1.7-13.6 3.4-2.1 0.8-4.7 0.7-6.2-1.4-1.2-1.4-1.9-3.2-2.7-4.9-1.1-1.1-1.2-2.8 0.3-3.2q1.4-1 2.8-1.9c1.4 3 2.5 7 5.5 8.3 3 0.8 5.8-1.3 8.7-2.1 4.1-1.6 8.5-1.8 12.7-1 2.4 0.3 5.4 1.3 6.1 4.5 0.2 2.7 0.7 5.3 2.3 7.4 1.6 2.7 3.8 5.4 6.8 5.5 1 0.4 4.2-0.4 3.8 0.5q-1.6 1.4-3.3 2.9z"/>
		<path id="path3097" class="s4" d="m65.4 40c-2.2-1.4-4.8-2.6-5.7-5.2-0.7-1.8-1.3-3.5-1.6-5.3-0.2-2.5 0-5-0.1-7.5 0.4-1.6-0.6-3-2.2-3.3-2.1-0.6-4.3-0.6-6.4-0.9-2-0.1-4.3 0.4-5.9-1.1-1.1-1.4-1.7-3.2-2.2-4.9-0.2-0.9 1-1 1.5-1.5q1.4-0.9 2.8-1.8c0.2 1.7 1 3.2 1.6 4.8 0.9 1.6 2.9 1.6 4.5 1.6 2.5 0.2 5.1 0.2 7.6 0.8 1.6 0.3 3.4 1.4 3.2 3.3 0.1 3.7-0.5 7.7 0.8 11.3 0.6 1.6 1.1 3.4 2.5 4.5 1.1 1 2.5 1.6 3.7 2.4-1 0.9-2.3 1.6-3.4 2.3q-0.3 0.3-0.7 0.5z"/>
	</g>
</svg>