<svg version="1.2" xmlns="http://www.w3.org/2000/svg" viewBox="0 0 120 60">
	<title>nginx</title>
	<style>
		.s0 { fill: #009900 } 
	</style>
	<path id="Layer" fill-rule="evenodd" class="s0" d="m29.8 39.1c-0.5 0-1-0.2-1.4-0.6l-12.5-12v10.5c0 1.1-0.9 2-2.1 2-1.1 0-2-0.8-2-2v-15.3c0-0.8 0.5-1.6 1.2-1.9 0.8-0.3 1.7-0.1 2.3 0.5l12.4 11.9v-10.5c0-1.1 1-2 2.1-2 1.2 0 2.1 0.9 2.1 2v15.3c0 1.1-0.9 2-2.1 2m21.9-19.4l0.6 1.2 2.6 6.1h-4.2l-1.6-3.2h-7.1l-3.3 5.7 3.3 5.6h6.6l1.3-2.5h-5.2c-1.1 0.1-2.1-0.9-2.1-2 0-1 1-2 2.1-2h8.6 3.3l-1.5 2.9-3.3 6.5-0.6 1.1h-11.6l-0.6-1-4.5-7.6-0.6-1 0.6-0.9 4.5-7.8 0.6-1.1c-0.1 0 12.1 0 12.1 0zm11.2 2v5.3h-4.2v-5.3c0-1 1-2 2.1-2 1.2 0 2.1 1 2.1 2zm4.6 17.5c-1.1 0-2.1-0.9-2.1-2.1v-15.3c0-1.1 1-2 2.1-2 1.2 0 2.1 0.9 2.1 2v10.5l12.4-11.9c0.6-0.6 1.5-0.8 2.3-0.5 0.8 0.4 1.3 1.1 1.3 1.9v15.4c0 1.1-0.9 2-2.1 2-1.1 0-2.1-0.9-2.1-2v-10.5l-12.4 11.9c-0.4 0.4-0.9 0.6-1.5 0.6zm33.5-9.7l6.6 6.2c0.8 0.8 0.8 2.1 0 2.9-0.4 0.4-0.9 0.6-1.5 0.6-0.5 0-1.1-0.2-1.5-0.6l-6.5-6.3-6.5 6.3c-0.4 0.4-1 0.6-1.5 0.6-0.5 0-1-0.2-1.4-0.6-0.8-0.8-0.8-2.1 0-2.9l6.5-6.2-6.5-6.3c-0.8-0.7-0.8-2 0-2.8 0.8-0.8 2.1-0.8 3 0l6.5 6.2 6.5-6.2c0.8-0.8 2.2-0.8 3 0 0.8 0.8 0.8 2.1 0 2.8l-6.6 6.3zm-40.3 9.6c-1.1 0-2.1-0.9-2.1-2v-8.4h4.2v8.4c0 1.1-0.9 2.1-2.1 2z"/>
</svg>